<mxfile host="app.diagrams.net" modified="2024-07-15T08:12:22.846Z" agent="Mozilla/5.0 (Windows NT 10.0; Win64; x64) AppleWebKit/537.36 (KHTML, like Gecko) Chrome/121.0.0.0 Safari/537.36 Edg/121.0.0.0" version="24.6.5" etag="jBOEXPkmAha1Kq_ZhR6T" type="github">
  <diagram name="Page-1" id="kseHmaz0W0Wi3b-C_ruT">
    <mxGraphModel>
      <root>
        <mxCell id="0" />
        <mxCell id="1" parent="0" />
      </root>
    </mxGraphModel>
  </diagram>
</mxfile>
